<svg version="1.1" id="Layer_1" xmlns="http://www.w3.org/2000/svg" xmlns:xlink="http://www.w3.org/1999/xlink" x="0px" y="0px"
	 width="100%" viewBox="0 0 1024 544" enable-background="new 0 0 1024 544" xml:space="preserve">
<path fill="#000000" opacity="1.000000" stroke="none" 
	d="
M534.196045,272.062073 
	C531.935913,278.295990 530.703674,284.542694 526.505615,290.554596 
	C524.854736,285.752411 523.596069,281.707306 519.762024,278.737854 
	C517.329956,276.854218 520.675476,273.194794 520.155518,270.247620 
	C507.661377,271.935913 490.993805,289.511475 490.501373,301.746887 
	C490.345520,305.619080 490.950104,309.736389 495.259338,311.341644 
	C499.331207,312.858459 502.252441,310.425812 504.717346,307.445831 
	C506.309021,305.521545 507.859894,303.563171 509.470612,301.655121 
	C511.011230,299.830078 512.859741,298.925659 515.197510,300.143066 
	C517.654297,301.422516 519.940857,301.606964 522.048706,298.650635 
	C520.424988,310.588287 507.777924,321.794556 495.508728,319.069458 
	C486.543091,317.078125 481.618164,307.291168 484.260071,296.667999 
	C487.319855,284.364563 495.113007,275.474640 505.039886,268.246704 
	C517.171448,259.413483 530.895874,253.941833 545.151428,249.583206 
	C551.673950,247.588928 558.040039,245.086868 564.500488,242.883942 
	C567.408875,241.892242 569.109619,240.053024 570.084778,237.064606 
	C573.908386,225.347946 578.097900,213.769897 583.823364,202.801224 
	C587.107117,196.510284 591.283203,190.983276 596.796753,186.501373 
	C597.957031,185.558136 599.142944,184.607590 600.439148,183.876999 
	C606.386902,180.524673 612.714783,178.669220 618.797180,182.886902 
	C624.614807,186.921036 624.336060,193.608597 622.883972,199.327469 
	C621.201477,205.953583 620.820984,211.617065 622.829590,218.600021 
	C626.702087,232.063126 612.088745,243.029999 597.341064,237.878113 
	C600.233337,234.072891 603.763306,231.664215 607.889160,230.023651 
	C615.804321,226.876343 617.017456,220.494263 610.695679,214.772369 
	C608.088501,212.412552 605.143860,210.500198 601.915283,209.093506 
	C599.270264,207.941116 598.404907,206.453842 599.982483,203.676086 
	C601.400696,201.178925 602.818909,199.594681 605.859070,201.223679 
	C608.043335,202.394073 610.309021,203.412613 612.762756,204.608215 
	C616.377869,200.817459 617.444458,196.396393 616.614380,191.675125 
	C616.037720,188.395279 613.614624,186.953506 610.248230,188.137405 
	C606.814697,189.344955 604.263000,191.808151 602.266846,194.713409 
	C594.737061,205.672455 590.082642,217.887451 586.303528,231.591339 
	C592.799377,229.126572 596.684265,224.534210 601.262817,220.984146 
	C602.571106,219.969788 603.673035,218.688309 604.862915,217.522476 
	C606.218628,216.194092 607.535339,214.809433 609.477722,216.720718 
	C611.240540,218.455276 611.894165,220.302292 610.225708,222.453873 
	C606.112793,227.757858 601.040649,232.078568 595.868347,236.275620 
	C593.803650,237.951035 591.702271,239.755005 589.315186,240.826874 
	C582.156677,244.041107 579.506165,249.926147 577.984863,257.163849 
	C575.799316,267.562714 572.433533,277.739746 572.347229,288.493347 
	C572.317017,292.256378 571.892517,296.790039 576.216309,298.471649 
	C580.650452,300.196106 583.597900,296.729248 586.474854,293.881439 
	C589.872681,290.518005 591.664368,286.185608 593.859070,282.080200 
	C595.865112,278.327728 596.115845,278.294342 601.327698,279.978119 
	C596.995789,290.012543 593.009399,300.074036 582.240173,304.995270 
	C572.787109,309.315094 563.293274,304.209259 560.725220,293.848755 
	C558.314636,284.123444 560.750916,274.685913 562.346130,265.197052 
	C562.918274,261.793823 564.245544,258.493561 563.725708,254.266006 
	C554.935181,256.608948 546.465149,259.370270 538.313721,262.868103 
	C535.065491,264.261963 535.479797,268.632629 534.196045,272.062073 
z"/>
<path fill="#000000" opacity="1.000000" stroke="none" 
	d="
M483.230255,195.679169 
	C490.975494,198.842056 497.597839,198.056870 504.825165,194.152435 
	C513.780518,189.314484 523.715332,186.662552 534.212280,188.638382 
	C542.106873,190.124359 545.893616,193.468643 546.275391,199.168015 
	C546.704468,205.574448 542.908752,210.720703 535.713623,213.127136 
	C524.186707,216.982330 512.680115,215.027359 501.227783,212.672485 
	C486.406311,209.624878 472.182190,204.182312 457.166748,201.835403 
	C441.885406,199.446945 428.551941,203.722839 416.449738,212.819717 
	C414.395142,214.364105 413.043243,216.432510 412.154144,218.830643 
	C410.155731,224.220901 411.983154,228.264496 417.555481,229.496399 
	C430.069824,232.262985 441.370392,230.177750 450.439240,220.327194 
	C451.097290,219.612473 451.659241,218.719452 452.791687,218.655701 
	C456.078186,223.618988 455.233276,228.235672 450.139130,232.376068 
	C445.760040,235.935303 440.576263,237.763458 435.098877,238.661255 
	C428.498199,239.743164 421.820984,240.164124 415.319092,238.196289 
	C404.026123,234.778351 399.487518,224.342865 404.627350,213.633804 
	C409.150055,204.210663 417.246124,198.890625 426.575897,195.040482 
	C442.577393,188.437149 458.804535,189.786636 475.108765,193.543579 
	C477.702576,194.141251 480.258606,194.902863 483.230255,195.679169 
M520.141357,195.546860 
	C516.016846,197.056107 511.648987,198.061478 507.372223,201.606155 
	C516.942017,204.313416 525.680908,206.055145 534.776062,203.687149 
	C537.105225,203.080734 539.527405,201.947159 539.363770,199.226776 
	C539.195862,196.435455 536.752563,194.944504 534.210571,194.577576 
	C529.776794,193.937607 525.288452,193.849594 520.141357,195.546860 
z"/>
<path fill="#000000" opacity="1.000000" stroke="none" 
	d="
M415.962463,289.246124 
	C423.091156,271.049957 437.015717,260.443878 453.879272,253.167236 
	C470.921234,245.813553 489.114777,245.215317 507.302826,244.931702 
	C507.935211,244.921844 508.571930,245.190826 509.192535,245.326767 
	C508.308411,252.930527 505.742126,255.193802 498.615173,255.376404 
	C492.462555,255.534042 486.319122,256.039886 480.170837,256.377594 
	C476.637817,256.571655 474.597626,258.050964 473.516327,261.776672 
	C469.626190,275.180603 466.376556,288.868835 458.737396,300.861572 
	C453.639679,308.864471 447.839935,316.078186 437.947296,318.403809 
	C423.267426,321.854828 411.896240,311.351440 414.188507,296.408478 
	C414.540222,294.115662 415.275421,291.881714 415.962463,289.246124 
M450.173035,264.696747 
	C444.725159,267.233673 439.643219,270.370880 435.037476,274.226105 
	C427.679626,280.384888 422.662750,288.003357 420.775574,297.537384 
	C419.731598,302.811493 421.580170,308.091553 425.330719,310.281433 
	C429.435242,312.677979 433.949036,311.836395 438.508484,307.796173 
	C441.516876,305.130341 443.966187,302.042999 445.916901,298.499603 
	C451.566467,288.237396 455.080780,277.178802 458.280975,265.993958 
	C458.604095,264.864563 458.896240,263.725159 457.805695,262.639313 
	C455.230988,261.899689 453.145782,263.580414 450.173035,264.696747 
z"/>
<path fill="#000000" opacity="1.000000" stroke="none" 
	d="
M498.716003,173.779495 
	C488.972076,178.573563 479.566803,183.210922 470.144867,187.814148 
	C466.837097,189.430161 460.535675,188.972000 454.678070,186.756638 
	C455.210724,184.637192 457.213348,184.372772 458.737152,183.624634 
	C472.931946,176.655579 487.113892,169.658173 501.385376,162.848877 
	C505.321960,160.970642 507.863007,158.368805 508.491608,153.980972 
	C509.461273,147.212555 514.466736,143.540070 519.400208,139.753922 
	C523.629395,136.508301 525.194946,130.412994 523.233032,125.829918 
	C521.417419,121.588661 516.145264,118.644096 511.318298,119.410233 
	C506.382141,120.193703 503.275085,123.064316 502.152100,128.031464 
	C501.469818,131.049149 500.603058,134.359406 496.493011,133.404129 
	C492.176239,132.400833 492.834442,129.023041 493.599426,125.757011 
	C495.489380,117.688187 501.856049,111.985992 510.404694,110.814415 
	C518.489807,109.706352 526.981201,113.828728 530.735535,120.684654 
	C534.767700,128.047867 533.852173,137.362823 528.291626,143.529846 
	C526.636536,145.365433 524.606689,146.885864 522.642029,148.413681 
	C520.354858,150.192368 517.981567,152.127441 517.697266,155.059982 
	C516.879761,163.493484 511.664368,168.008286 504.453674,171.021713 
	C502.612854,171.791016 500.847900,172.741898 498.716003,173.779495 
z"/>
<path fill="#000000" opacity="1.000000" stroke="none" 
	d="
M566.353760,192.729919 
	C549.309509,184.460754 532.598145,176.368073 515.914551,168.288834 
	C519.155762,160.800430 519.408142,160.550537 525.706787,163.545013 
	C544.782593,172.613983 563.782898,181.841858 582.828247,190.975067 
	C584.930115,191.983017 586.181519,193.237564 584.838013,195.613113 
	C583.641174,197.729248 582.786377,200.519684 579.320496,198.869461 
	C575.115967,196.867599 570.898499,194.892868 566.353760,192.729919 
z"/>
<path fill="#000000" opacity="1.000000" stroke="none" 
	d="
M540.817383,247.666473 
	C536.315247,250.549515 531.710510,252.141510 525.535156,253.609360 
	C529.883789,240.634323 531.661987,228.017319 539.466736,217.676941 
	C542.348938,213.858383 546.592407,211.935471 552.649658,210.761673 
	C548.589111,223.574234 544.820496,235.465546 540.817383,247.666473 
z"/>
<path fill="#000000" opacity="1.000000" stroke="none" 
	d="
M487.691864,221.656540 
	C484.604797,226.663589 482.342163,231.717697 481.164551,237.034927 
	C479.878387,242.842072 476.672302,245.468475 470.932709,245.642227 
	C469.163910,245.695786 467.457489,246.791824 464.990204,245.843567 
	C466.150696,239.939255 468.506134,234.371078 470.984955,228.915894 
	C472.897095,224.707718 475.305511,220.699478 477.759705,216.768661 
	C482.317505,209.468613 483.896851,209.228958 491.917480,214.249100 
	C491.441467,217.034927 488.903778,218.800858 487.691864,221.656540 
z"/>
</svg>